<svg version="1.1" id="Layer_1" xmlns="http://www.w3.org/2000/svg" xmlns:xlink="http://www.w3.org/1999/xlink" x="0px" y="0px" viewBox="0 0 720 216" width="720" height="216" style="enable-background:new 0 0 720 216;" xml:space="preserve">
<style type="text/css">
	.st0{fill:#32D17E;}
	.st1{fill:#FFFFFF;}
	.st2{fill:#1A2732;}
</style>
<g>
	<path class="st0" d="M116.3,202.2c-5.5-5.4-9.8-12.2-13-20.4c-3.2-8.1-4.9-17.5-4.9-28.2c0-10.7,1.6-20,4.9-28.1&#xA;&#x9;&#x9;c3.2-8.1,7.6-14.9,13.2-20.4c5.6-5.5,12-9.6,19.3-12.4c2.9-1.1,5.8-1.9,8.8-2.6l0-12.5v0c5.8-6.9,9.2-15.8,9.2-25.6&#xA;&#x9;&#x9;c0-9.6-3.4-18.7-9.2-25.6c2.3-6.7,1.6-15.1,1.6-15.1c-1.1,3.3-6.7,4.8-13.6,5.6c-5.5-2.9-11.7-4.5-18.4-4.5&#xA;&#x9;&#x9;c-11.1,0-21.1,4.6-28.3,11.9C78.7,17,68.7,12.5,57.6,12.5c-6.6,0-12.8,1.6-18.3,4.5c-6.8-0.8-12.3-2.3-13.4-5.6&#xA;&#x9;&#x9;c0,0-0.7,8.4,1.5,15.1C21.5,33.3,18,42.3,18,52c0,9.3,4,18.8,9.4,25.6c0,7.5,0,74.6,0,74.6c0,29,22.7,52.5,51.7,52.5H119&#xA;&#x9;&#x9;C118.1,203.9,117.2,203.1,116.3,202.2z"/>
	<path class="st1" d="M630.5,102.6l34.9,62.3c0,7.6,0,39.8,0,39.8h-21.2v-39.8l-34.5-62.3H630.5"/>
	<path class="st1" d="M207,153.6c0,8.4-1.2,15.7-3.7,22.1c-2.5,6.4-5.9,11.7-10.2,16c-4.3,4.3-9.3,7.5-15,9.7&#xA;&#x9;&#x9;c-5.7,2.2-11.8,3.2-18.3,3.2s-12.6-1.1-18.4-3.2c-5.8-2.2-10.8-5.4-15.1-9.7c-4.3-4.3-7.7-9.6-10.2-16c-2.5-6.4-3.8-13.8-3.8-22.1&#xA;&#x9;&#x9;c0-8.4,1.3-15.7,3.8-22.1c2.5-6.3,6-11.7,10.4-16c4.4-4.3,9.4-7.6,15.2-9.7c5.7-2.2,11.8-3.2,18.2-3.2c6.4,0,12.5,1.1,18.2,3.2&#xA;&#x9;&#x9;c5.7,2.2,10.7,5.4,15,9.7c4.3,4.3,7.7,9.7,10.2,16C205.8,137.9,207,145.3,207,153.6z M130.7,153.6c0,5.4,0.7,10.2,2,14.6&#xA;&#x9;&#x9;c1.3,4.4,3.2,8.1,5.7,11.1c2.5,3.1,5.5,5.4,9.1,7.1c3.6,1.7,7.6,2.5,12.1,2.5c4.4,0,8.4-0.8,12-2.5c3.6-1.7,6.6-4.1,9.1-7.1&#xA;&#x9;&#x9;c2.5-3.1,4.4-6.8,5.7-11.1c1.3-4.4,2-9.2,2-14.6c0-5.4-0.7-10.2-2-14.6c-1.3-4.4-3.2-8.1-5.7-11.1c-2.5-3.1-5.5-5.4-9.1-7.1&#xA;&#x9;&#x9;c-3.6-1.7-7.6-2.5-12-2.5c-4.5,0-8.6,0.8-12.1,2.5c-3.6,1.7-6.6,4.1-9.1,7.2c-2.5,3.1-4.4,6.8-5.7,11.1&#xA;&#x9;&#x9;C131.4,143.4,130.7,148.3,130.7,153.6z"/>
	<path class="st1" d="M291.3,102.6c0.2,9.3,3.2,22.3,5,28.1c1.8,5.7,3.6,11.5,5.5,17.2c1.9,5.7,3.8,11.4,5.7,16.9&#xA;&#x9;&#x9;c1.9,5.6,3.8,10.8,5.5,15.7c1.5-5.3,2.9-11.1,4.3-17.3c1.4-6.2,2.7-12.7,4.1-19.5c1.4-6.7,2.7-13.6,4.1-20.6&#xA;&#x9;&#x9;c1.3-7,2.6-13.9,3.8-20.6h19.2c-3.4,18.5-7.3,36.2-11.5,53.3c-4.2,17-8.9,33.3-14.1,48.8H305c-7.6-19.8-15-41.5-22.1-65&#xA;&#x9;&#x9;c-3.6,11.9-7.3,23.2-11.1,33.9c-3.7,10.7-7.5,21.1-11.2,31.1h-17.7c-5.3-15.5-10-31.8-14.2-48.8c-4.2-17-8-34.8-11.4-53.3l19.9,0&#xA;&#x9;&#x9;c1.2,6.7,2.4,13.5,3.8,20.5c1.3,7,2.7,13.8,4.1,20.6c1.4,6.7,2.9,13.2,4.3,19.5c1.5,6.3,2.9,12.1,4.4,17.4c1.9-5,3.8-10.3,5.7-15.8&#xA;&#x9;&#x9;c1.9-5.5,3.8-11.2,5.7-16.9c1.9-5.7,3.7-11.5,5.4-17.2c1.7-5.7,4.5-15.6,4.8-28H291.3z"/>
	<path class="st1" d="M428.6,188.9v15.8H364V102.6h18.6v86.3H428.6z"/>
	<path class="st1" d="M442.7,204.7V102.6h65.6v15.8h-47v25.2h41.8V159h-41.8v29.9l50.5,0v15.8H442.7z"/>
	<path class="st1" d="M556.9,102.6c14.6,0,25.7,2.7,33.5,8c7.7,5.4,11.6,13.5,11.6,24.5c0,13.7-6.8,23-20.3,27.9&#xA;&#x9;&#x9;c1.8,2.2,3.9,5,6.3,8.2c2.3,3.2,4.7,6.7,7.1,10.4c2.4,3.7,4.8,7.6,7,11.5c2.2,3.9,4.2,7.8,6,11.6h-20.6c-1.8-3.5-3.8-7-6-10.6&#xA;&#x9;&#x9;c-2.1-3.5-4.3-7-6.5-10.4c-2.2-3.4-4.4-6.5-6.5-9.5c-2.1-3-4.1-5.6-6-7.9c-1.4,0.1-2.5,0.1-3.5,0.1s-1.9,0-2.8,0h-8.9v38.2h-18.4&#xA;&#x9;&#x9;V105c4.5-1,9.2-1.6,14.3-2C548.4,102.7,552.9,102.6,556.9,102.6z M558.2,118.5c-3.9,0-7.5,0.1-10.8,0.4v32.7h8&#xA;&#x9;&#x9;c4.5,0,8.4-0.2,11.8-0.7c3.4-0.5,6.2-1.4,8.5-2.6c2.3-1.3,4-3,5.2-5.1c1.2-2.1,1.8-4.9,1.8-8.2c0-3.1-0.6-5.7-1.8-7.9&#xA;&#x9;&#x9;c-1.2-2.1-2.8-3.8-5-5.1c-2.2-1.3-4.8-2.2-7.8-2.7C565.2,118.7,561.8,118.5,558.2,118.5z"/>
	<g>
		<polygon class="st0" points="654.7,102.6 702,102.6 679.5,139.9 676.5,116"/>
	</g>
	<g>
		<g>
			<circle class="st1" cx="114.2" cy="52" r="24.1"/>
			<circle class="st2" cx="120.9" cy="52" r="13.6"/>
		</g>
		<g>
			<circle class="st1" cx="57.6" cy="52" r="24.1"/>
			<circle class="st2" cx="64.2" cy="52" r="13.6"/>
		</g>
		<path class="st1" d="M94.4,88.6c-0.2,9.1-8.5,15.5-8.5,15.5c-9.1-6.1-8.5-16-8.5-16c0-4.6,3.8-8.4,8.5-8.4c4.7,0,8.5,3.8,8.5,8.5&#xA;&#x9;&#x9;&#x9;C94.4,88.4,94.4,88.5,94.4,88.6z"/>
	</g>
</g>
</svg>
